{"title":"Star Parivaar Awards (2015) 720p Main Event - AVC - AAC - Team I","uid":12018336,"size":2024408615,"categoryP":"video","categoryS":"tv_shows","magnet":"?xt=urn:btih:63f6d41dfdb6a070e3eff21ec6426eb218ef24a8&amp;dn=Star+Parivaar+Awards+%282015%29+720p+Main+Event+-+AVC+-+AAC+-+Team+I&amp;tr=udp%3A%2F%2Ftracker.openbittorrent.com%3A80&amp;tr=udp%3A%2F%2Fopen.demonii.com%3A1337&amp;tr=udp%3A%2F%2Ftracker.coppersurfer.tk%3A6969&amp;tr=udp%3A%2F%2Fexodus.desync.com%3A6969","seeders":3,"leechers":1,"uploader":"SS132203","files":2,"time":1434350374,"description":"\n &lt;a href=&quot;\nhttp://imgsparrow.co/image/47&quot; rel=&quot;nofollow&quot; target=&quot;_NEW&quot;&gt;\nhttp://imgsparrow.co/image/47&lt;/a&gt;\n &lt;a href=&quot;\nhttp://imgsparrow.co/image/yO&quot; rel=&quot;nofollow&quot; target=&quot;_NEW&quot;&gt;\nhttp://imgsparrow.co/image/yO&lt;/a&gt;\n\nInfo : - \n\nAll Credit Goes To Intellect Clever &amp; IcTv (Thank Them Not Me)\nExclusive First On Net\n\nFormat                      : MPEG-4\nFormat profile              : Base Media\nCodec ID                    : isom\nFile size                   : 1.89 GiB\nDuration                    : 2h 10mn\nOverall bit rate mode       : Variable\nOverall bit rate            : 2 066 Kbps\nWriting application         : Lavf55.32.101\n\nVideo\nID                          : 1\nFormat                      : AVC\nFormat/Info                 : Advanced Video Codec\nFormat profile              : &lt;a class=&quot;__cf_email__&quot; href=&quot;/cdn-cgi/l/email-protection&quot; data-cfemail=&quot;abe6cac2c5ebe798859a&quot;&gt;[email&amp;#160;protected]&lt;/a&gt;&lt;script data-cfhash='f9e31' type=&quot;text/javascript&quot;&gt;\n/* &lt;![CDATA[ */!function(){try{var t=&quot;currentScript&quot;in document?document.currentScript:function(){for(var t=document.getElementsByTagName(&quot;script&quot;),e=t.length;e--;)if(t[e].getAttribute(&quot;data-cfhash&quot;))return t[e]}();if(t&amp;&amp;t.previousSibling){var e,r,n,i,c=t.previousSibling,a=c.getAttribute(&quot;data-cfemail&quot;);if(a){for(e=&quot;&quot;,r=parseInt(a.substr(0,2),16),n=2;a.length-n;n+=2)i=parseInt(a.substr(n,2),16)^r,e+=String.fromCharCode(i);e=document.createTextNode(e),c.parentNode.replaceChild(e,c)}t.parentNode.removeChild(t);}}catch(u){}}()/* ]]&gt; */&lt;/script&gt;\nFormat settings, CABAC      : Yes\nFormat settings, ReFrames   : 1 frame\nFormat settings, GOP        : M=1, N=25\nCodec ID                    : avc1\nCodec ID/Info               : Advanced Video Coding\nDuration                    : 2h 10mn\nBit rate mode               : Constant\nBit rate                    : 2 000 Kbps\nWidth                       : 1 280 pixels\nHeight                      : 720 pixels\nDisplay aspect ratio        : 16:9\nFrame rate mode             : Constant\nFrame rate                  : 25.000 fps\nColor space                 : YUV\nChroma subsampling          : 4:2:0\nBit depth                   : 8 bits\nScan type                   : Progressive\nBits/(Pixel*Frame)          : 0.087\nStream size                 : 1.83 GiB (97%)\n\nAudio\nID                          : 2\nFormat                      : AAC\nFormat/Info                 : Advanced Audio Codec\nFormat profile              : LC\nCodec ID                    : 40\nDuration                    : 2h 10mn\nBit rate mode               : Variable\nBit rate                    : 61.4 Kbps\nMaximum bit rate            : 63.8 Kbps\nChannel(s)                  : 2 channels\nChannel positions           : Front: L R\nSampling rate               : 48.0 KHz\nCompression mode            : Lossy\nStream size                 : 57.4 MiB (3%)\n\nScreens : - \n &lt;a href=&quot;\nhttp://imgsparrow.co/image/yP&quot; rel=&quot;nofollow&quot; target=&quot;_NEW&quot;&gt;\nhttp://imgsparrow.co/image/yP&lt;/a&gt; &lt;a href=&quot;\nhttp://imgsparrow.co/image/yW&quot; rel=&quot;nofollow&quot; target=&quot;_NEW&quot;&gt;\nhttp://imgsparrow.co/image/yW&lt;/a&gt; &lt;a href=&quot;\nhttp://imgsparrow.co/image/yX&quot; rel=&quot;nofollow&quot; target=&quot;_NEW&quot;&gt;\nhttp://imgsparrow.co/image/yX&lt;/a&gt; &lt;a href=&quot;\nhttp://imgsparrow.co/image/yY&quot; rel=&quot;nofollow&quot; target=&quot;_NEW&quot;&gt;\nhttp://imgsparrow.co/image/yY&lt;/a&gt; &lt;a href=&quot;\nhttp://imgsparrow.co/image/yc&quot; rel=&quot;nofollow&quot; target=&quot;_NEW&quot;&gt;\nhttp://imgsparrow.co/image/yc&lt;/a&gt; &lt;a href=&quot;\nhttp://imgsparrow.co/image/yd&quot; rel=&quot;nofollow&quot; target=&quot;_NEW&quot;&gt;\nhttp://imgsparrow.co/image/yd&lt;/a&gt; &lt;a href=&quot;\nhttp://imgsparrow.co/image/yo&quot; rel=&quot;nofollow&quot; target=&quot;_NEW&quot;&gt;\nhttp://imgsparrow.co/image/yo&lt;/a&gt; &lt;a href=&quot;\nhttp://imgsparrow.co/image/yM&quot; rel=&quot;nofollow&quot; target=&quot;_NEW&quot;&gt;\nhttp://imgsparrow.co/image/yM&lt;/a&gt; &lt;a href=&quot;\nhttp://imgsparrow.co/image/ym&quot; rel=&quot;nofollow&quot; target=&quot;_NEW&quot;&gt;\nhttp://imgsparrow.co/image/ym&lt;/a&gt; &lt;a href=&quot;\nhttp://imgsparrow.co/image/yF&quot; rel=&quot;nofollow&quot; target=&quot;_NEW&quot;&gt;\nhttp://imgsparrow.co/image/yF&lt;/a&gt;\n &lt;a href=&quot;\nhttp://imgsparrow.co/image/N2&quot; rel=&quot;nofollow&quot; target=&quot;_NEW&quot;&gt;\nhttp://imgsparrow.co/image/N2&lt;/a&gt;","torrent":{"xt":"urn:btih:63f6d41dfdb6a070e3eff21ec6426eb218ef24a8","amp;dn":"Star+Parivaar+Awards+%282015%29+720p+Main+Event+-+AVC+-+AAC+-+Team+I","amp;tr":["udp%3A%2F%2Ftracker.openbittorrent.com%3A80","udp%3A%2F%2Fopen.demonii.com%3A1337","udp%3A%2F%2Ftracker.coppersurfer.tk%3A6969","udp%3A%2F%2Fexodus.desync.com%3A6969"],"infoHash":"63f6d41dfdb6a070e3eff21ec6426eb218ef24a8","infoHashBuffer":{"type":"Buffer","data":[99,246,212,29,253,182,160,112,227,239,242,30,198,66,110,178,24,239,36,168]},"announce":[],"urlList":[]}}